solid OpenSCAD_Model
  facet normal -0.0256326 0 -0.999671
    outer loop
      vertex -0.0261868 0.0025261 0.49525
      vertex -0.0248998 0.0025261 0.495217
      vertex -0.0248998 -0.0024739 0.495217
    endloop
  endfacet
  facet normal 0.0256346 0 -0.999671
    outer loop
      vertex -0.0248998 -0.0024739 0.495217
      vertex -0.0248998 0.0025261 0.495217
      vertex -0.0236129 -0.0024739 0.49525
    endloop
  endfacet
  facet normal 0.0256346 0 -0.999671
    outer loop
      vertex -0.0248998 0.0025261 0.495217
      vertex -0.0236129 0.0025261 0.49525
      vertex -0.0236129 -0.0024739 0.49525
    endloop
  endfacet
  facet normal 0.102569 0 -0.994726
    outer loop
      vertex -0.0236129 -0.0024739 0.49525
      vertex -0.0236129 0.0025261 0.49525
      vertex -0.0210526 0.0025261 0.495514
    endloop
  endfacet
  facet normal 0.102569 0 -0.994726
    outer loop
      vertex -0.0236129 -0.0024739 0.49525
      vertex -0.0210526 0.0025261 0.495514
      vertex -0.0210526 -0.0024739 0.495514
    endloop
  endfacet
  facet normal 0.204738 0 -0.978817
    outer loop
      vertex -0.0210526 -0.0024739 0.495514
      vertex -0.0210526 0.0025261 0.495514
      vertex -0.0185331 0.0025261 0.496041
    endloop
  endfacet
  facet normal 0.204738 0 -0.978817
    outer loop
      vertex -0.0210526 -0.0024739 0.495514
      vertex -0.0185331 0.0025261 0.496041
      vertex -0.0185331 -0.0024739 0.496041
    endloop
  endfacet
  facet normal 0.304186 0 -0.952613
    outer loop
      vertex -0.0185331 -0.0024739 0.496041
      vertex -0.0185331 0.0025261 0.496041
      vertex -0.016081 0.0025261 0.496824
    endloop
  endfacet
  facet normal 0.304186 0 -0.952613
    outer loop
      vertex -0.0185331 -0.0024739 0.496041
      vertex -0.016081 0.0025261 0.496824
      vertex -0.016081 -0.0024739 0.496824
    endloop
  endfacet
  facet normal 0.400217 0 -0.91642
    outer loop
      vertex -0.016081 -0.0024739 0.496824
      vertex -0.016081 0.0025261 0.496824
      vertex -0.0137225 0.0025261 0.497854
    endloop
  endfacet
  facet normal 0.400217 0 -0.91642
    outer loop
      vertex -0.016081 -0.0024739 0.496824
      vertex -0.0137225 0.0025261 0.497854
      vertex -0.0137225 -0.0024739 0.497854
    endloop
  endfacet
  facet normal 0.492604 0 -0.870254
    outer loop
      vertex -0.0137225 -0.0024739 0.497854
      vertex -0.0137225 0.0025261 0.497854
      vertex -0.0114824 0.0025261 0.499122
    endloop
  endfacet
  facet normal 0.492604 0 -0.870254
    outer loop
      vertex -0.0137225 -0.0024739 0.497854
      vertex -0.0114824 0.0025261 0.499122
      vertex -0.0114824 -0.0024739 0.499122
    endloop
  endfacet
  facet normal 0.579583 0 -0.814913
    outer loop
      vertex -0.0114824 -0.0024739 0.499122
      vertex -0.0114824 0.0025261 0.499122
      vertex -0.0093846 0.0025261 0.500614
    endloop
  endfacet
  facet normal 0.579583 0 -0.814913
    outer loop
      vertex -0.0114824 -0.0024739 0.499122
      vertex -0.0093846 0.0025261 0.500614
      vertex -0.0093846 -0.0024739 0.500614
    endloop
  endfacet
  facet normal 0.66011 0 -0.751169
    outer loop
      vertex -0.0093846 -0.0024739 0.500614
      vertex -0.0093846 0.0025261 0.500614
      vertex -0.00745123 0.0025261 0.502313
    endloop
  endfacet
  facet normal 0.66011 0 -0.751169
    outer loop
      vertex -0.0093846 -0.0024739 0.500614
      vertex -0.00745123 0.0025261 0.502313
      vertex -0.00745123 -0.0024739 0.502313
    endloop
  endfacet
  facet normal 0.733889 0 -0.679269
    outer loop
      vertex -0.00745123 -0.0024739 0.502313
      vertex -0.00745123 0.0025261 0.502313
      vertex -0.00570282 0.0025261 0.504202
    endloop
  endfacet
  facet normal 0.733889 0 -0.679269
    outer loop
      vertex -0.00745123 -0.0024739 0.502313
      vertex -0.00570282 0.0025261 0.504202
      vertex -0.00570282 -0.0024739 0.504202
    endloop
  endfacet
  facet normal 0.799877 0 -0.600164
    outer loop
      vertex -0.00570282 -0.0024739 0.504202
      vertex -0.00570282 0.0025261 0.504202
      vertex -0.00415791 0.0025261 0.506261
    endloop
  endfacet
  facet normal 0.799877 0 -0.600164
    outer loop
      vertex -0.00570282 -0.0024739 0.504202
      vertex -0.00415791 0.0025261 0.506261
      vertex -0.00415791 -0.0024739 0.506261
    endloop
  endfacet
  facet normal 0.857246 0 -0.514907
    outer loop
      vertex -0.00415791 -0.0024739 0.506261
      vertex -0.00415791 0.0025261 0.506261
      vertex -0.00283287 0.0025261 0.508467
    endloop
  endfacet
  facet normal 0.857246 0 -0.514907
    outer loop
      vertex -0.00415791 -0.0024739 0.506261
      vertex -0.00283287 0.0025261 0.508467
      vertex -0.00283287 -0.0024739 0.508467
    endloop
  endfacet
  facet normal 0.905685 0 -0.423951
    outer loop
      vertex -0.00283287 -0.0024739 0.508467
      vertex -0.00283287 0.0025261 0.508467
      vertex -0.00174173 0.0025261 0.510798
    endloop
  endfacet
  facet normal 0.905685 0 -0.423951
    outer loop
      vertex -0.00283287 -0.0024739 0.508467
      vertex -0.00174173 0.0025261 0.510798
      vertex -0.00174173 -0.0024739 0.510798
    endloop
  endfacet
  facet normal 0.944488 0 -0.328547
    outer loop
      vertex -0.00174173 -0.0024739 0.510798
      vertex -0.00174173 0.0025261 0.510798
      vertex -0.000896088 0.0025261 0.513229
    endloop
  endfacet
  facet normal 0.944488 0 -0.328547
    outer loop
      vertex -0.00174173 -0.0024739 0.510798
      vertex -0.000896088 0.0025261 0.513229
      vertex -0.000896088 -0.0024739 0.513229
    endloop
  endfacet
  facet normal 0.973282 0 -0.229612
    outer loop
      vertex -0.000896088 -0.0024739 0.513229
      vertex -0.000896088 0.0025261 0.513229
      vertex -0.000304885 0.0025261 0.515735
    endloop
  endfacet
  facet normal 0.973282 0 -0.229612
    outer loop
      vertex -0.000896088 -0.0024739 0.513229
      vertex -0.000304885 0.0025261 0.515735
      vertex -0.000304885 -0.0024739 0.515735
    endloop
  endfacet
  facet normal 0.991719 0 -0.12843
    outer loop
      vertex -0.000304885 -0.0024739 0.515735
      vertex -0.000304885 0.0025261 0.515735
      vertex 2.56043e-05 0.0025261 0.518287
    endloop
  endfacet
  facet normal 0.991719 0 -0.12843
    outer loop
      vertex -0.000304885 -0.0024739 0.515735
      vertex 2.56043e-05 0.0025261 0.518287
      vertex 2.56043e-05 -0.0024739 0.518287
    endloop
  endfacet
  facet normal 0.999668 0 -0.0257485
    outer loop
      vertex 2.56043e-05 -0.0024739 0.518287
      vertex 2.56043e-05 0.0025261 0.518287
      vertex 9.18772e-05 0.0025261 0.52086
    endloop
  endfacet
  facet normal 0.999668 0 -0.0257485
    outer loop
      vertex 2.56043e-05 -0.0024739 0.518287
      vertex 9.18772e-05 0.0025261 0.52086
      vertex 9.18772e-05 -0.0024739 0.52086
    endloop
  endfacet
  facet normal 0.997019 -0 0.0771535
    outer loop
      vertex 9.18772e-05 -0.0024739 0.52086
      vertex 9.18772e-05 0.0025261 0.52086
      vertex -0.000106768 0.0025261 0.523427
    endloop
  endfacet
  facet normal 0.997019 0 0.0771535
    outer loop
      vertex 9.18772e-05 -0.0024739 0.52086
      vertex -0.000106768 0.0025261 0.523427
      vertex -0.000106768 -0.0024739 0.523427
    endloop
  endfacet
  facet normal 0.983795 -0 0.179297
    outer loop
      vertex -0.000106768 -0.0024739 0.523427
      vertex -0.000106768 0.0025261 0.523427
      vertex -0.000568226 0.0025261 0.525959
    endloop
  endfacet
  facet normal 0.983795 0 0.179297
    outer loop
      vertex -0.000106768 -0.0024739 0.523427
      vertex -0.000568226 0.0025261 0.525959
      vertex -0.000568226 -0.0024739 0.525959
    endloop
  endfacet
  facet normal 0.960139 -0 0.279522
    outer loop
      vertex -0.000568226 -0.0024739 0.525959
      vertex -0.000568226 0.0025261 0.525959
      vertex -0.0012876 0.0025261 0.52843
    endloop
  endfacet
  facet normal 0.960139 0 0.279522
    outer loop
      vertex -0.000568226 -0.0024739 0.525959
      vertex -0.0012876 0.0025261 0.52843
      vertex -0.0012876 -0.0024739 0.52843
    endloop
  endfacet
  facet normal 0.926307 -0 0.376771
    outer loop
      vertex -0.0012876 -0.0024739 0.52843
      vertex -0.0012876 0.0025261 0.52843
      vertex -0.00225728 0.0025261 0.530814
    endloop
  endfacet
  facet normal 0.926307 0 0.376771
    outer loop
      vertex -0.0012876 -0.0024739 0.52843
      vertex -0.00225728 0.0025261 0.530814
      vertex -0.00225728 -0.0024739 0.530814
    endloop
  endfacet
  facet normal 0.882682 -0 0.46997
    outer loop
      vertex -0.00225728 -0.0024739 0.530814
      vertex -0.00225728 0.0025261 0.530814
      vertex -0.00346697 0.0025261 0.533086
    endloop
  endfacet
  facet normal 0.882682 0 0.46997
    outer loop
      vertex -0.00225728 -0.0024739 0.530814
      vertex -0.00346697 0.0025261 0.533086
      vertex -0.00346697 -0.0024739 0.533086
    endloop
  endfacet
  facet normal 0.829734 -0 0.558159
    outer loop
      vertex -0.00346697 -0.0024739 0.533086
      vertex -0.00346697 0.0025261 0.533086
      vertex -0.00490385 0.0025261 0.535222
    endloop
  endfacet
  facet normal 0.829734 0 0.558159
    outer loop
      vertex -0.00346697 -0.0024739 0.533086
      vertex -0.00490385 0.0025261 0.535222
      vertex -0.00490385 -0.0024739 0.535222
    endloop
  endfacet
  facet normal 0.767804 -0 0.640685
    outer loop
      vertex -0.00490385 -0.0024739 0.535222
      vertex -0.00490385 0.0025261 0.535222
      vertex -0.0065527 0.0025261 0.537198
    endloop
  endfacet
  facet normal 0.767804 0 0.640685
    outer loop
      vertex -0.00490385 -0.0024739 0.535222
      vertex -0.0065527 0.0025261 0.537198
      vertex -0.0065527 -0.0024739 0.537198
    endloop
  endfacet
  facet normal 0.698051 -0 0.716048
    outer loop
      vertex -0.0065527 -0.0024739 0.537198
      vertex -0.0065527 0.0025261 0.537198
      vertex -0.00839603 0.0025261 0.538995
    endloop
  endfacet
  facet normal 0.698051 0 0.716048
    outer loop
      vertex -0.0065527 -0.0024739 0.537198
      vertex -0.00839603 0.0025261 0.538995
      vertex -0.00839603 -0.0024739 0.538995
    endloop
  endfacet
  facet normal 0.620513 -0 0.784197
    outer loop
      vertex -0.00839603 -0.0024739 0.538995
      vertex -0.00839603 0.0025261 0.538995
      vertex -0.0104143 0.0025261 0.540592
    endloop
  endfacet
  facet normal 0.620513 0 0.784197
    outer loop
      vertex -0.00839603 -0.0024739 0.538995
      vertex -0.0104143 0.0025261 0.540592
      vertex -0.0104143 -0.0024739 0.540592
    endloop
  endfacet
  facet normal 0.53686 -0 0.843671
    outer loop
      vertex -0.0104143 -0.0024739 0.540592
      vertex -0.0104143 0.0025261 0.540592
      vertex -0.0125861 0.0025261 0.541974
    endloop
  endfacet
  facet normal 0.53686 0 0.843671
    outer loop
      vertex -0.0104143 -0.0024739 0.540592
      vertex -0.0125861 0.0025261 0.541974
      vertex -0.0125861 -0.0024739 0.541974
    endloop
  endfacet
  facet normal 0.447151 -0 0.894458
    outer loop
      vertex -0.0125861 -0.0024739 0.541974
      vertex -0.0125861 0.0025261 0.541974
      vertex -0.0148885 0.0025261 0.543125
    endloop
  endfacet
  facet normal 0.447151 0 0.894458
    outer loop
      vertex -0.0125861 -0.0024739 0.541974
      vertex -0.0148885 0.0025261 0.543125
      vertex -0.0148885 -0.0024739 0.543125
    endloop
  endfacet
  facet normal 0.352762 -0 0.935713
    outer loop
      vertex -0.0148885 -0.0024739 0.543125
      vertex -0.0148885 0.0025261 0.543125
      vertex -0.017297 0.0025261 0.544033
    endloop
  endfacet
  facet normal 0.352762 0 0.935713
    outer loop
      vertex -0.0148885 -0.0024739 0.543125
      vertex -0.017297 0.0025261 0.544033
      vertex -0.017297 -0.0024739 0.544033
    endloop
  endfacet
  facet normal 0.254493 -0 0.967075
    outer loop
      vertex -0.017297 -0.0024739 0.544033
      vertex -0.017297 0.0025261 0.544033
      vertex -0.019786 0.0025261 0.544688
    endloop
  endfacet
  facet normal 0.254493 0 0.967075
    outer loop
      vertex -0.017297 -0.0024739 0.544033
      vertex -0.019786 0.0025261 0.544688
      vertex -0.019786 -0.0024739 0.544688
    endloop
  endfacet
  facet normal 0.153849 -0 0.988094
    outer loop
      vertex -0.019786 -0.0024739 0.544688
      vertex -0.019786 0.0025261 0.544688
      vertex -0.0223293 0.0025261 0.545084
    endloop
  endfacet
  facet normal 0.153849 0 0.988094
    outer loop
      vertex -0.019786 -0.0024739 0.544688
      vertex -0.0223293 0.0025261 0.545084
      vertex -0.0223293 -0.0024739 0.545084
    endloop
  endfacet
  facet normal 0.0516718 -0 0.998664
    outer loop
      vertex -0.0223293 -0.0024739 0.545084
      vertex -0.0223293 0.0025261 0.545084
      vertex -0.0248998 0.0025261 0.545217
    endloop
  endfacet
  facet normal 0.0516718 0 0.998664
    outer loop
      vertex -0.0223293 -0.0024739 0.545084
      vertex -0.0248998 0.0025261 0.545217
      vertex -0.0248998 -0.0024739 0.545217
    endloop
  endfacet
  facet normal -0.0516698 0 0.998664
    outer loop
      vertex -0.0248998 -0.0024739 0.545217
      vertex -0.0248998 0.0025261 0.545217
      vertex -0.0274704 0.0025261 0.545084
    endloop
  endfacet
  facet normal -0.0516698 0 0.998664
    outer loop
      vertex -0.0248998 -0.0024739 0.545217
      vertex -0.0274704 0.0025261 0.545084
      vertex -0.0274704 -0.0024739 0.545084
    endloop
  endfacet
  facet normal -0.153855 0 0.988093
    outer loop
      vertex -0.0274704 -0.0024739 0.545084
      vertex -0.0274704 0.0025261 0.545084
      vertex -0.0300136 0.0025261 0.544688
    endloop
  endfacet
  facet normal -0.153855 0 0.988093
    outer loop
      vertex -0.0274704 -0.0024739 0.545084
      vertex -0.0300136 0.0025261 0.544688
      vertex -0.0300136 -0.0024739 0.544688
    endloop
  endfacet
  facet normal -0.254484 0 0.967077
    outer loop
      vertex -0.0300136 -0.0024739 0.544688
      vertex -0.0300136 0.0025261 0.544688
      vertex -0.0325027 0.0025261 0.544033
    endloop
  endfacet
  facet normal -0.254484 0 0.967077
    outer loop
      vertex -0.0300136 -0.0024739 0.544688
      vertex -0.0325027 0.0025261 0.544033
      vertex -0.0325027 -0.0024739 0.544033
    endloop
  endfacet
  facet normal -0.352762 0 0.935713
    outer loop
      vertex -0.0325027 -0.0024739 0.544033
      vertex -0.0325027 0.0025261 0.544033
      vertex -0.0349112 0.0025261 0.543125
    endloop
  endfacet
  facet normal -0.352762 0 0.935713
    outer loop
      vertex -0.0325027 -0.0024739 0.544033
      vertex -0.0349112 0.0025261 0.543125
      vertex -0.0349112 -0.0024739 0.543125
    endloop
  endfacet
  facet normal -0.447167 0 0.89445
    outer loop
      vertex -0.0349112 -0.0024739 0.543125
      vertex -0.0349112 0.0025261 0.543125
      vertex -0.0372135 0.0025261 0.541974
    endloop
  endfacet
  facet normal -0.447167 0 0.89445
    outer loop
      vertex -0.0349112 -0.0024739 0.543125
      vertex -0.0372135 0.0025261 0.541974
      vertex -0.0372135 -0.0024739 0.541974
    endloop
  endfacet
  facet normal -0.536843 0 0.843682
    outer loop
      vertex -0.0372135 -0.0024739 0.541974
      vertex -0.0372135 0.0025261 0.541974
      vertex -0.0393854 0.0025261 0.540592
    endloop
  endfacet
  facet normal -0.536843 0 0.843682
    outer loop
      vertex -0.0372135 -0.0024739 0.541974
      vertex -0.0393854 0.0025261 0.540592
      vertex -0.0393854 -0.0024739 0.540592
    endloop
  endfacet
  facet normal -0.620526 0 0.784186
    outer loop
      vertex -0.0393854 -0.0024739 0.540592
      vertex -0.0393854 0.0025261 0.540592
      vertex -0.0414036 0.0025261 0.538995
    endloop
  endfacet
  facet normal -0.620526 0 0.784186
    outer loop
      vertex -0.0393854 -0.0024739 0.540592
      vertex -0.0414036 0.0025261 0.538995
      vertex -0.0414036 -0.0024739 0.538995
    endloop
  endfacet
  facet normal -0.698037 0 0.716061
    outer loop
      vertex -0.0414036 -0.0024739 0.538995
      vertex -0.0414036 0.0025261 0.538995
      vertex -0.043247 0.0025261 0.537198
    endloop
  endfacet
  facet normal -0.698037 0 0.716061
    outer loop
      vertex -0.0414036 -0.0024739 0.538995
      vertex -0.043247 0.0025261 0.537198
      vertex -0.043247 -0.0024739 0.537198
    endloop
  endfacet
  facet normal -0.767813 0 0.640673
    outer loop
      vertex -0.043247 -0.0024739 0.537198
      vertex -0.043247 0.0025261 0.537198
      vertex -0.0448958 0.0025261 0.535222
    endloop
  endfacet
  facet normal -0.767813 0 0.640673
    outer loop
      vertex -0.043247 -0.0024739 0.537198
      vertex -0.0448958 0.0025261 0.535222
      vertex -0.0448958 -0.0024739 0.535222
    endloop
  endfacet
  facet normal -0.82973 0 0.558165
    outer loop
      vertex -0.0448958 -0.0024739 0.535222
      vertex -0.0448958 0.0025261 0.535222
      vertex -0.0463327 0.0025261 0.533086
    endloop
  endfacet
  facet normal -0.82973 0 0.558165
    outer loop
      vertex -0.0448958 -0.0024739 0.535222
      vertex -0.0463327 0.0025261 0.533086
      vertex -0.0463327 -0.0024739 0.533086
    endloop
  endfacet
  facet normal -0.882681 0 0.469973
    outer loop
      vertex -0.0463327 -0.0024739 0.533086
      vertex -0.0463327 0.0025261 0.533086
      vertex -0.0475424 0.0025261 0.530814
    endloop
  endfacet
  facet normal -0.882681 0 0.469973
    outer loop
      vertex -0.0463327 -0.0024739 0.533086
      vertex -0.0475424 0.0025261 0.530814
      vertex -0.0475424 -0.0024739 0.530814
    endloop
  endfacet
  facet normal -0.926304 0 0.376777
    outer loop
      vertex -0.0475424 -0.0024739 0.530814
      vertex -0.0475424 0.0025261 0.530814
      vertex -0.0485121 0.0025261 0.52843
    endloop
  endfacet
  facet normal -0.926304 0 0.376777
    outer loop
      vertex -0.0475424 -0.0024739 0.530814
      vertex -0.0485121 0.0025261 0.52843
      vertex -0.0485121 -0.0024739 0.52843
    endloop
  endfacet
  facet normal -0.960147 0 0.279496
    outer loop
      vertex -0.0485121 -0.0024739 0.52843
      vertex -0.0485121 0.0025261 0.52843
      vertex -0.0492314 0.0025261 0.525959
    endloop
  endfacet
  facet normal -0.960147 0 0.279496
    outer loop
      vertex -0.0485121 -0.0024739 0.52843
      vertex -0.0492314 0.0025261 0.525959
      vertex -0.0492314 -0.0024739 0.525959
    endloop
  endfacet
  facet normal -0.983792 0 0.179313
    outer loop
      vertex -0.0492314 -0.0024739 0.525959
      vertex -0.0492314 0.0025261 0.525959
      vertex -0.0496929 0.0025261 0.523427
    endloop
  endfacet
  facet normal -0.983792 0 0.179313
    outer loop
      vertex -0.0492314 -0.0024739 0.525959
      vertex -0.0496929 0.0025261 0.523427
      vertex -0.0496929 -0.0024739 0.523427
    endloop
  endfacet
  facet normal -0.997021 0 0.0771361
    outer loop
      vertex -0.0496929 -0.0024739 0.523427
      vertex -0.0496929 0.0025261 0.523427
      vertex -0.0498915 0.0025261 0.52086
    endloop
  endfacet
  facet normal -0.997021 0 0.0771361
    outer loop
      vertex -0.0496929 -0.0024739 0.523427
      vertex -0.0498915 0.0025261 0.52086
      vertex -0.0498915 -0.0024739 0.52086
    endloop
  endfacet
  facet normal -0.999669 0 -0.0257202
    outer loop
      vertex -0.0498915 -0.0024739 0.52086
      vertex -0.0498915 0.0025261 0.52086
      vertex -0.0498253 0.0025261 0.518287
    endloop
  endfacet
  facet normal -0.999669 0 -0.0257202
    outer loop
      vertex -0.0498915 -0.0024739 0.52086
      vertex -0.0498253 0.0025261 0.518287
      vertex -0.0498253 -0.0024739 0.518287
    endloop
  endfacet
  facet normal -0.991718 0 -0.128434
    outer loop
      vertex -0.0498253 -0.0024739 0.518287
      vertex -0.0498253 0.0025261 0.518287
      vertex -0.0494948 0.0025261 0.515735
    endloop
  endfacet
  facet normal -0.991718 0 -0.128434
    outer loop
      vertex -0.0498253 -0.0024739 0.518287
      vertex -0.0494948 0.0025261 0.515735
      vertex -0.0494948 -0.0024739 0.515735
    endloop
  endfacet
  facet normal -0.973283 0 -0.229611
    outer loop
      vertex -0.0494948 -0.0024739 0.515735
      vertex -0.0494948 0.0025261 0.515735
      vertex -0.0489036 0.0025261 0.513229
    endloop
  endfacet
  facet normal -0.973283 0 -0.229611
    outer loop
      vertex -0.0494948 -0.0024739 0.515735
      vertex -0.0489036 0.0025261 0.513229
      vertex -0.0489036 -0.0024739 0.513229
    endloop
  endfacet
  facet normal -0.944481 0 -0.328567
    outer loop
      vertex -0.0489036 -0.0024739 0.513229
      vertex -0.0489036 0.0025261 0.513229
      vertex -0.0480579 0.0025261 0.510798
    endloop
  endfacet
  facet normal -0.944481 0 -0.328567
    outer loop
      vertex -0.0489036 -0.0024739 0.513229
      vertex -0.0480579 0.0025261 0.510798
      vertex -0.0480579 -0.0024739 0.510798
    endloop
  endfacet
  facet normal -0.905691 0 -0.423938
    outer loop
      vertex -0.0480579 -0.0024739 0.510798
      vertex -0.0480579 0.0025261 0.510798
      vertex -0.0469668 0.0025261 0.508467
    endloop
  endfacet
  facet normal -0.905691 0 -0.423938
    outer loop
      vertex -0.0480579 -0.0024739 0.510798
      vertex -0.0469668 0.0025261 0.508467
      vertex -0.0469668 -0.0024739 0.508467
    endloop
  endfacet
  facet normal -0.857253 0 -0.514896
    outer loop
      vertex -0.0469668 -0.0024739 0.508467
      vertex -0.0469668 0.0025261 0.508467
      vertex -0.0456418 0.0025261 0.506261
    endloop
  endfacet
  facet normal -0.857253 0 -0.514896
    outer loop
      vertex -0.0469668 -0.0024739 0.508467
      vertex -0.0456418 0.0025261 0.506261
      vertex -0.0456418 -0.0024739 0.506261
    endloop
  endfacet
  facet normal -0.79986 0 -0.600186
    outer loop
      vertex -0.0456418 -0.0024739 0.506261
      vertex -0.0456418 0.0025261 0.506261
      vertex -0.0440968 0.0025261 0.504202
    endloop
  endfacet
  facet normal -0.79986 0 -0.600186
    outer loop
      vertex -0.0456418 -0.0024739 0.506261
      vertex -0.0440968 0.0025261 0.504202
      vertex -0.0440968 -0.0024739 0.504202
    endloop
  endfacet
  facet normal -0.733891 0 -0.679267
    outer loop
      vertex -0.0440968 -0.0024739 0.504202
      vertex -0.0440968 0.0025261 0.504202
      vertex -0.0423484 0.0025261 0.502313
    endloop
  endfacet
  facet normal -0.733891 0 -0.679267
    outer loop
      vertex -0.0440968 -0.0024739 0.504202
      vertex -0.0423484 0.0025261 0.502313
      vertex -0.0423484 -0.0024739 0.502313
    endloop
  endfacet
  facet normal -0.660123 0 -0.751157
    outer loop
      vertex -0.0423484 -0.0024739 0.502313
      vertex -0.0423484 0.0025261 0.502313
      vertex -0.0404151 0.0025261 0.500614
    endloop
  endfacet
  facet normal -0.660123 0 -0.751157
    outer loop
      vertex -0.0423484 -0.0024739 0.502313
      vertex -0.0404151 0.0025261 0.500614
      vertex -0.0404151 -0.0024739 0.500614
    endloop
  endfacet
  facet normal -0.579565 0 -0.814926
    outer loop
      vertex -0.0404151 -0.0024739 0.500614
      vertex -0.0404151 0.0025261 0.500614
      vertex -0.0383172 0.0025261 0.499122
    endloop
  endfacet
  facet normal -0.579565 0 -0.814926
    outer loop
      vertex -0.0404151 -0.0024739 0.500614
      vertex -0.0383172 0.0025261 0.499122
      vertex -0.0383172 -0.0024739 0.499122
    endloop
  endfacet
  facet normal -0.49262 0 -0.870244
    outer loop
      vertex -0.0383172 -0.0024739 0.499122
      vertex -0.0383172 0.0025261 0.499122
      vertex -0.0360772 0.0025261 0.497854
    endloop
  endfacet
  facet normal -0.49262 0 -0.870244
    outer loop
      vertex -0.0383172 -0.0024739 0.499122
      vertex -0.0360772 0.0025261 0.497854
      vertex -0.0360772 -0.0024739 0.497854
    endloop
  endfacet
  facet normal -0.400203 0 -0.916426
    outer loop
      vertex -0.0360772 -0.0024739 0.497854
      vertex -0.0360772 0.0025261 0.497854
      vertex -0.0337186 0.0025261 0.496824
    endloop
  endfacet
  facet normal -0.400203 0 -0.916426
    outer loop
      vertex -0.0360772 -0.0024739 0.497854
      vertex -0.0337186 0.0025261 0.496824
      vertex -0.0337186 -0.0024739 0.496824
    endloop
  endfacet
  facet normal -0.304198 0 -0.952609
    outer loop
      vertex -0.0337186 -0.0024739 0.496824
      vertex -0.0337186 0.0025261 0.496824
      vertex -0.0312666 0.0025261 0.496041
    endloop
  endfacet
  facet normal -0.304198 0 -0.952609
    outer loop
      vertex -0.0337186 -0.0024739 0.496824
      vertex -0.0312666 0.0025261 0.496041
      vertex -0.0312666 -0.0024739 0.496041
    endloop
  endfacet
  facet normal -0.204738 0 -0.978817
    outer loop
      vertex -0.0312666 -0.0024739 0.496041
      vertex -0.0312666 0.0025261 0.496041
      vertex -0.0287471 0.0025261 0.495514
    endloop
  endfacet
  facet normal -0.204738 0 -0.978817
    outer loop
      vertex -0.0312666 -0.0024739 0.496041
      vertex -0.0287471 0.0025261 0.495514
      vertex -0.0287471 -0.0024739 0.495514
    endloop
  endfacet
  facet normal -0.102569 0 -0.994726
    outer loop
      vertex -0.0287471 -0.0024739 0.495514
      vertex -0.0287471 0.0025261 0.495514
      vertex -0.0261868 0.0025261 0.49525
    endloop
  endfacet
  facet normal -0.102569 0 -0.994726
    outer loop
      vertex -0.0287471 -0.0024739 0.495514
      vertex -0.0261868 0.0025261 0.49525
      vertex -0.0261868 -0.0024739 0.49525
    endloop
  endfacet
  facet normal -0.0256326 0 -0.999671
    outer loop
      vertex -0.0261868 -0.0024739 0.49525
      vertex -0.0261868 0.0025261 0.49525
      vertex -0.0248998 -0.0024739 0.495217
    endloop
  endfacet
  facet normal 0 1 0
    outer loop
      vertex -0.0236129 0.0025261 0.49525
      vertex -0.0248998 0.0025261 0.518629
      vertex -0.0246242 0.0025261 0.518653
    endloop
  endfacet
  facet normal 0 1 0
    outer loop
      vertex -0.0243569 0.0025261 0.518725
      vertex -0.0185331 0.0025261 0.496041
      vertex -0.0246242 0.0025261 0.518653
    endloop
  endfacet
  facet normal 0 1 0
    outer loop
      vertex -0.0246242 0.0025261 0.518653
      vertex -0.0185331 0.0025261 0.496041
      vertex -0.0210526 0.0025261 0.495514
    endloop
  endfacet
  facet normal 0 1 0
    outer loop
      vertex -0.0246242 0.0025261 0.518653
      vertex -0.0210526 0.0025261 0.495514
      vertex -0.0236129 0.0025261 0.49525
    endloop
  endfacet
  facet normal 0 1 0
    outer loop
      vertex -0.0254428 0.0025261 0.518725
      vertex -0.0360772 0.0025261 0.497854
      vertex -0.0256936 0.0025261 0.518842
    endloop
  endfacet
  facet normal 0 1 0
    outer loop
      vertex -0.0256936 0.0025261 0.518842
      vertex -0.0360772 0.0025261 0.497854
      vertex -0.0383172 0.0025261 0.499122
    endloop
  endfacet
  facet normal 0 1 0
    outer loop
      vertex -0.0256936 0.0025261 0.518842
      vertex -0.0383172 0.0025261 0.499122
      vertex -0.0259203 0.0025261 0.519001
    endloop
  endfacet
  facet normal 0 1 0
    outer loop
      vertex -0.0236129 0.0025261 0.49525
      vertex -0.0248998 0.0025261 0.495217
      vertex -0.0248998 0.0025261 0.518629
    endloop
  endfacet
  facet normal 0 1 0
    outer loop
      vertex -0.0248998 0.0025261 0.518629
      vertex -0.0248998 0.0025261 0.495217
      vertex -0.0261868 0.0025261 0.49525
    endloop
  endfacet
  facet normal 0 1 0
    outer loop
      vertex -0.0248998 0.0025261 0.518629
      vertex -0.0261868 0.0025261 0.49525
      vertex -0.0251755 0.0025261 0.518653
    endloop
  endfacet
  facet normal -0 1 0
    outer loop
      vertex -0.0236837 0.0025261 0.519196
      vertex -0.023525 0.0025261 0.519423
      vertex -0.00415791 0.0025261 0.506261
    endloop
  endfacet
  facet normal 0 1 0
    outer loop
      vertex -0.0475424 0.0025261 0.530814
      vertex -0.0262747 0.0025261 0.52101
      vertex -0.0263916 0.0025261 0.52076
    endloop
  endfacet
  facet normal 0 1 0
    outer loop
      vertex -0.0261159 0.0025261 0.519196
      vertex -0.0456418 0.0025261 0.506261
      vertex -0.0262747 0.0025261 0.519423
    endloop
  endfacet
  facet normal 0 1 0
    outer loop
      vertex -0.0262747 0.0025261 0.519423
      vertex -0.0456418 0.0025261 0.506261
      vertex -0.0469668 0.0025261 0.508467
    endloop
  endfacet
  facet normal 0 1 0
    outer loop
      vertex -0.0262747 0.0025261 0.519423
      vertex -0.0469668 0.0025261 0.508467
      vertex -0.0263916 0.0025261 0.519674
    endloop
  endfacet
  facet normal 0 1 -0
    outer loop
      vertex -0.0261868 0.0025261 0.49525
      vertex -0.0287471 0.0025261 0.495514
      vertex -0.0251755 0.0025261 0.518653
    endloop
  endfacet
  facet normal 0 1 0
    outer loop
      vertex -0.0251755 0.0025261 0.518653
      vertex -0.0287471 0.0025261 0.495514
      vertex -0.0312666 0.0025261 0.496041
    endloop
  endfacet
  facet normal 0 1 0
    outer loop
      vertex -0.0251755 0.0025261 0.518653
      vertex -0.0312666 0.0025261 0.496041
      vertex -0.0254428 0.0025261 0.518725
    endloop
  endfacet
  facet normal 0 1 0
    outer loop
      vertex -0.0254428 0.0025261 0.518725
      vertex -0.0312666 0.0025261 0.496041
      vertex -0.0337186 0.0025261 0.496824
    endloop
  endfacet
  facet normal 0 1 0
    outer loop
      vertex -0.0254428 0.0025261 0.518725
      vertex -0.0337186 0.0025261 0.496824
      vertex -0.0360772 0.0025261 0.497854
    endloop
  endfacet
  facet normal 0 1 0
    outer loop
      vertex -0.0241061 0.0025261 0.518842
      vertex -0.0137225 0.0025261 0.497854
      vertex -0.0243569 0.0025261 0.518725
    endloop
  endfacet
  facet normal 0 1 0
    outer loop
      vertex -0.0243569 0.0025261 0.518725
      vertex -0.0137225 0.0025261 0.497854
      vertex -0.016081 0.0025261 0.496824
    endloop
  endfacet
  facet normal 0 1 0
    outer loop
      vertex -0.0243569 0.0025261 0.518725
      vertex -0.016081 0.0025261 0.496824
      vertex -0.0185331 0.0025261 0.496041
    endloop
  endfacet
  facet normal 0 1 0
    outer loop
      vertex -0.00415791 0.0025261 0.506261
      vertex -0.00570282 0.0025261 0.504202
      vertex -0.0236837 0.0025261 0.519196
    endloop
  endfacet
  facet normal 0 1 0
    outer loop
      vertex -0.0236837 0.0025261 0.519196
      vertex -0.00570282 0.0025261 0.504202
      vertex -0.00745123 0.0025261 0.502313
    endloop
  endfacet
  facet normal 0 1 0
    outer loop
      vertex -0.0236837 0.0025261 0.519196
      vertex -0.00745123 0.0025261 0.502313
      vertex -0.0238794 0.0025261 0.519001
    endloop
  endfacet
  facet normal 0 1 0
    outer loop
      vertex -0.0238794 0.0025261 0.519001
      vertex -0.00745123 0.0025261 0.502313
      vertex -0.0093846 0.0025261 0.500614
    endloop
  endfacet
  facet normal 0 1 0
    outer loop
      vertex -0.0238794 0.0025261 0.519001
      vertex -0.0093846 0.0025261 0.500614
      vertex -0.0241061 0.0025261 0.518842
    endloop
  endfacet
  facet normal 0 1 0
    outer loop
      vertex -0.0241061 0.0025261 0.518842
      vertex -0.0093846 0.0025261 0.500614
      vertex -0.0114824 0.0025261 0.499122
    endloop
  endfacet
  facet normal 0 1 0
    outer loop
      vertex -0.0241061 0.0025261 0.518842
      vertex -0.0114824 0.0025261 0.499122
      vertex -0.0137225 0.0025261 0.497854
    endloop
  endfacet
  facet normal 0 1 -0
    outer loop
      vertex -0.0264632 0.0025261 0.520492
      vertex -0.0492314 0.0025261 0.525959
      vertex -0.0263916 0.0025261 0.52076
    endloop
  endfacet
  facet normal 0 1 0
    outer loop
      vertex -0.0263916 0.0025261 0.52076
      vertex -0.0492314 0.0025261 0.525959
      vertex -0.0485121 0.0025261 0.52843
    endloop
  endfacet
  facet normal 0 1 0
    outer loop
      vertex -0.0263916 0.0025261 0.52076
      vertex -0.0485121 0.0025261 0.52843
      vertex -0.0475424 0.0025261 0.530814
    endloop
  endfacet
  facet normal 0 1 0
    outer loop
      vertex -0.0264632 0.0025261 0.519941
      vertex -0.0498253 0.0025261 0.518287
      vertex -0.0264873 0.0025261 0.520217
    endloop
  endfacet
  facet normal 0 1 0
    outer loop
      vertex -0.0264873 0.0025261 0.520217
      vertex -0.0498253 0.0025261 0.518287
      vertex -0.0498915 0.0025261 0.52086
    endloop
  endfacet
  facet normal 0 1 -0
    outer loop
      vertex -0.0264873 0.0025261 0.520217
      vertex -0.0498915 0.0025261 0.52086
      vertex -0.0264632 0.0025261 0.520492
    endloop
  endfacet
  facet normal 0 1 0
    outer loop
      vertex -0.0264632 0.0025261 0.520492
      vertex -0.0498915 0.0025261 0.52086
      vertex -0.0496929 0.0025261 0.523427
    endloop
  endfacet
  facet normal 0 1 0
    outer loop
      vertex -0.0264632 0.0025261 0.520492
      vertex -0.0496929 0.0025261 0.523427
      vertex -0.0492314 0.0025261 0.525959
    endloop
  endfacet
  facet normal 0 1 -0
    outer loop
      vertex -0.0383172 0.0025261 0.499122
      vertex -0.0404151 0.0025261 0.500614
      vertex -0.0259203 0.0025261 0.519001
    endloop
  endfacet
  facet normal 0 1 0
    outer loop
      vertex -0.0259203 0.0025261 0.519001
      vertex -0.0404151 0.0025261 0.500614
      vertex -0.0423484 0.0025261 0.502313
    endloop
  endfacet
  facet normal 0 1 0
    outer loop
      vertex -0.0259203 0.0025261 0.519001
      vertex -0.0423484 0.0025261 0.502313
      vertex -0.0261159 0.0025261 0.519196
    endloop
  endfacet
  facet normal 0 1 0
    outer loop
      vertex -0.0261159 0.0025261 0.519196
      vertex -0.0423484 0.0025261 0.502313
      vertex -0.0440968 0.0025261 0.504202
    endloop
  endfacet
  facet normal 0 1 0
    outer loop
      vertex -0.0261159 0.0025261 0.519196
      vertex -0.0440968 0.0025261 0.504202
      vertex -0.0456418 0.0025261 0.506261
    endloop
  endfacet
  facet normal 0 1 -0
    outer loop
      vertex -0.0256936 0.0025261 0.521591
      vertex -0.0349112 0.0025261 0.543125
      vertex -0.0254428 0.0025261 0.521708
    endloop
  endfacet
  facet normal 0 1 0
    outer loop
      vertex -0.0254428 0.0025261 0.521708
      vertex -0.0349112 0.0025261 0.543125
      vertex -0.0325027 0.0025261 0.544033
    endloop
  endfacet
  facet normal 0 1 -0
    outer loop
      vertex -0.0254428 0.0025261 0.521708
      vertex -0.0325027 0.0025261 0.544033
      vertex -0.0251755 0.0025261 0.52178
    endloop
  endfacet
  facet normal -0 1 0
    outer loop
      vertex -0.0234081 0.0025261 0.52076
      vertex -0.000568226 0.0025261 0.525959
      vertex -0.0233365 0.0025261 0.520492
    endloop
  endfacet
  facet normal 0 1 0
    outer loop
      vertex -0.0233365 0.0025261 0.520492
      vertex -0.000568226 0.0025261 0.525959
      vertex -0.000106768 0.0025261 0.523427
    endloop
  endfacet
  facet normal -0 1 0
    outer loop
      vertex -0.0233365 0.0025261 0.520492
      vertex -0.000106768 0.0025261 0.523427
      vertex -0.0233123 0.0025261 0.520217
    endloop
  endfacet
  facet normal -0 1 0
    outer loop
      vertex -0.023525 0.0025261 0.52101
      vertex -0.00225728 0.0025261 0.530814
      vertex -0.0234081 0.0025261 0.52076
    endloop
  endfacet
  facet normal 0 1 0
    outer loop
      vertex -0.0234081 0.0025261 0.52076
      vertex -0.00225728 0.0025261 0.530814
      vertex -0.0012876 0.0025261 0.52843
    endloop
  endfacet
  facet normal 0 1 0
    outer loop
      vertex -0.0234081 0.0025261 0.52076
      vertex -0.0012876 0.0025261 0.52843
      vertex -0.000568226 0.0025261 0.525959
    endloop
  endfacet
  facet normal 0 1 -0
    outer loop
      vertex -0.0259203 0.0025261 0.521433
      vertex -0.0393854 0.0025261 0.540592
      vertex -0.0256936 0.0025261 0.521591
    endloop
  endfacet
  facet normal 0 1 0
    outer loop
      vertex -0.0256936 0.0025261 0.521591
      vertex -0.0393854 0.0025261 0.540592
      vertex -0.0372135 0.0025261 0.541974
    endloop
  endfacet
  facet normal 0 1 0
    outer loop
      vertex -0.0256936 0.0025261 0.521591
      vertex -0.0372135 0.0025261 0.541974
      vertex -0.0349112 0.0025261 0.543125
    endloop
  endfacet
  facet normal -0 1 0
    outer loop
      vertex -0.0475424 0.0025261 0.530814
      vertex -0.0463327 0.0025261 0.533086
      vertex -0.0262747 0.0025261 0.52101
    endloop
  endfacet
  facet normal 0 1 0
    outer loop
      vertex -0.0262747 0.0025261 0.52101
      vertex -0.0463327 0.0025261 0.533086
      vertex -0.0448958 0.0025261 0.535222
    endloop
  endfacet
  facet normal 0 1 -0
    outer loop
      vertex -0.0262747 0.0025261 0.52101
      vertex -0.0448958 0.0025261 0.535222
      vertex -0.0261159 0.0025261 0.521237
    endloop
  endfacet
  facet normal 0 1 0
    outer loop
      vertex -0.0261159 0.0025261 0.521237
      vertex -0.0448958 0.0025261 0.535222
      vertex -0.043247 0.0025261 0.537198
    endloop
  endfacet
  facet normal 0 1 -0
    outer loop
      vertex -0.0261159 0.0025261 0.521237
      vertex -0.043247 0.0025261 0.537198
      vertex -0.0259203 0.0025261 0.521433
    endloop
  endfacet
  facet normal 0 1 0
    outer loop
      vertex -0.0259203 0.0025261 0.521433
      vertex -0.043247 0.0025261 0.537198
      vertex -0.0414036 0.0025261 0.538995
    endloop
  endfacet
  facet normal 0 1 0
    outer loop
      vertex -0.0259203 0.0025261 0.521433
      vertex -0.0414036 0.0025261 0.538995
      vertex -0.0393854 0.0025261 0.540592
    endloop
  endfacet
  facet normal 0 1 -0
    outer loop
      vertex -0.0469668 0.0025261 0.508467
      vertex -0.0480579 0.0025261 0.510798
      vertex -0.0263916 0.0025261 0.519674
    endloop
  endfacet
  facet normal 0 1 0
    outer loop
      vertex -0.0263916 0.0025261 0.519674
      vertex -0.0480579 0.0025261 0.510798
      vertex -0.0489036 0.0025261 0.513229
    endloop
  endfacet
  facet normal 0 1 0
    outer loop
      vertex -0.0263916 0.0025261 0.519674
      vertex -0.0489036 0.0025261 0.513229
      vertex -0.0264632 0.0025261 0.519941
    endloop
  endfacet
  facet normal 0 1 0
    outer loop
      vertex -0.0264632 0.0025261 0.519941
      vertex -0.0489036 0.0025261 0.513229
      vertex -0.0494948 0.0025261 0.515735
    endloop
  endfacet
  facet normal 0 1 0
    outer loop
      vertex -0.0264632 0.0025261 0.519941
      vertex -0.0494948 0.0025261 0.515735
      vertex -0.0498253 0.0025261 0.518287
    endloop
  endfacet
  facet normal 0 1 0
    outer loop
      vertex -0.0233365 0.0025261 0.519941
      vertex -0.000896088 0.0025261 0.513229
      vertex -0.0234081 0.0025261 0.519674
    endloop
  endfacet
  facet normal 0 1 0
    outer loop
      vertex -0.0234081 0.0025261 0.519674
      vertex -0.000896088 0.0025261 0.513229
      vertex -0.00174173 0.0025261 0.510798
    endloop
  endfacet
  facet normal 0 1 0
    outer loop
      vertex -0.0234081 0.0025261 0.519674
      vertex -0.00174173 0.0025261 0.510798
      vertex -0.023525 0.0025261 0.519423
    endloop
  endfacet
  facet normal 0 1 0
    outer loop
      vertex -0.023525 0.0025261 0.519423
      vertex -0.00174173 0.0025261 0.510798
      vertex -0.00283287 0.0025261 0.508467
    endloop
  endfacet
  facet normal 0 1 0
    outer loop
      vertex -0.023525 0.0025261 0.519423
      vertex -0.00283287 0.0025261 0.508467
      vertex -0.00415791 0.0025261 0.506261
    endloop
  endfacet
  facet normal 0 1 0
    outer loop
      vertex -0.000106768 0.0025261 0.523427
      vertex 9.18772e-05 0.0025261 0.52086
      vertex -0.0233123 0.0025261 0.520217
    endloop
  endfacet
  facet normal -0 1 0
    outer loop
      vertex -0.0233123 0.0025261 0.520217
      vertex 9.18772e-05 0.0025261 0.52086
      vertex 2.56043e-05 0.0025261 0.518287
    endloop
  endfacet
  facet normal 0 1 0
    outer loop
      vertex -0.0233123 0.0025261 0.520217
      vertex 2.56043e-05 0.0025261 0.518287
      vertex -0.0233365 0.0025261 0.519941
    endloop
  endfacet
  facet normal 0 1 0
    outer loop
      vertex -0.0233365 0.0025261 0.519941
      vertex 2.56043e-05 0.0025261 0.518287
      vertex -0.000304885 0.0025261 0.515735
    endloop
  endfacet
  facet normal 0 1 0
    outer loop
      vertex -0.0233365 0.0025261 0.519941
      vertex -0.000304885 0.0025261 0.515735
      vertex -0.000896088 0.0025261 0.513229
    endloop
  endfacet
  facet normal -0 1 0
    outer loop
      vertex -0.0236837 0.0025261 0.521237
      vertex -0.00490385 0.0025261 0.535222
      vertex -0.023525 0.0025261 0.52101
    endloop
  endfacet
  facet normal 0 1 0
    outer loop
      vertex -0.023525 0.0025261 0.52101
      vertex -0.00490385 0.0025261 0.535222
      vertex -0.00346697 0.0025261 0.533086
    endloop
  endfacet
  facet normal 0 1 0
    outer loop
      vertex -0.023525 0.0025261 0.52101
      vertex -0.00346697 0.0025261 0.533086
      vertex -0.00225728 0.0025261 0.530814
    endloop
  endfacet
  facet normal -0 1 0
    outer loop
      vertex -0.0241061 0.0025261 0.521591
      vertex -0.0104143 0.0025261 0.540592
      vertex -0.0238794 0.0025261 0.521433
    endloop
  endfacet
  facet normal 0 1 0
    outer loop
      vertex -0.0238794 0.0025261 0.521433
      vertex -0.0104143 0.0025261 0.540592
      vertex -0.00839603 0.0025261 0.538995
    endloop
  endfacet
  facet normal -0 1 0
    outer loop
      vertex -0.0238794 0.0025261 0.521433
      vertex -0.00839603 0.0025261 0.538995
      vertex -0.0236837 0.0025261 0.521237
    endloop
  endfacet
  facet normal 0 1 0
    outer loop
      vertex -0.0236837 0.0025261 0.521237
      vertex -0.00839603 0.0025261 0.538995
      vertex -0.0065527 0.0025261 0.537198
    endloop
  endfacet
  facet normal 0 1 0
    outer loop
      vertex -0.0236837 0.0025261 0.521237
      vertex -0.0065527 0.0025261 0.537198
      vertex -0.00490385 0.0025261 0.535222
    endloop
  endfacet
  facet normal -0 1 0
    outer loop
      vertex -0.0325027 0.0025261 0.544033
      vertex -0.0300136 0.0025261 0.544688
      vertex -0.0251755 0.0025261 0.52178
    endloop
  endfacet
  facet normal 0 1 0
    outer loop
      vertex -0.0251755 0.0025261 0.52178
      vertex -0.0300136 0.0025261 0.544688
      vertex -0.0274704 0.0025261 0.545084
    endloop
  endfacet
  facet normal 0 1 -0
    outer loop
      vertex -0.0251755 0.0025261 0.52178
      vertex -0.0274704 0.0025261 0.545084
      vertex -0.0248998 0.0025261 0.521804
    endloop
  endfacet
  facet normal -0 1 0
    outer loop
      vertex -0.0243569 0.0025261 0.521708
      vertex -0.0148885 0.0025261 0.543125
      vertex -0.0241061 0.0025261 0.521591
    endloop
  endfacet
  facet normal 0 1 0
    outer loop
      vertex -0.0241061 0.0025261 0.521591
      vertex -0.0148885 0.0025261 0.543125
      vertex -0.0125861 0.0025261 0.541974
    endloop
  endfacet
  facet normal 0 1 0
    outer loop
      vertex -0.0241061 0.0025261 0.521591
      vertex -0.0125861 0.0025261 0.541974
      vertex -0.0104143 0.0025261 0.540592
    endloop
  endfacet
  facet normal -0 1 0
    outer loop
      vertex -0.0274704 0.0025261 0.545084
      vertex -0.0248998 0.0025261 0.545217
      vertex -0.0248998 0.0025261 0.521804
    endloop
  endfacet
  facet normal 0 1 0
    outer loop
      vertex -0.0248998 0.0025261 0.521804
      vertex -0.0248998 0.0025261 0.545217
      vertex -0.0223293 0.0025261 0.545084
    endloop
  endfacet
  facet normal -0 1 0
    outer loop
      vertex -0.0248998 0.0025261 0.521804
      vertex -0.0223293 0.0025261 0.545084
      vertex -0.0246242 0.0025261 0.52178
    endloop
  endfacet
  facet normal 0 1 0
    outer loop
      vertex -0.0246242 0.0025261 0.52178
      vertex -0.0223293 0.0025261 0.545084
      vertex -0.019786 0.0025261 0.544688
    endloop
  endfacet
  facet normal -0 1 0
    outer loop
      vertex -0.0246242 0.0025261 0.52178
      vertex -0.019786 0.0025261 0.544688
      vertex -0.0243569 0.0025261 0.521708
    endloop
  endfacet
  facet normal 0 1 0
    outer loop
      vertex -0.0243569 0.0025261 0.521708
      vertex -0.019786 0.0025261 0.544688
      vertex -0.017297 0.0025261 0.544033
    endloop
  endfacet
  facet normal 0 1 0
    outer loop
      vertex -0.0243569 0.0025261 0.521708
      vertex -0.017297 0.0025261 0.544033
      vertex -0.0148885 0.0025261 0.543125
    endloop
  endfacet
  facet normal 0 -1 0
    outer loop
      vertex -0.0236837 -0.0024739 0.519196
      vertex -0.00415791 -0.0024739 0.506261
      vertex -0.023525 -0.0024739 0.519423
    endloop
  endfacet
  facet normal 0 -1 0
    outer loop
      vertex -0.023525 -0.0024739 0.519423
      vertex -0.00415791 -0.0024739 0.506261
      vertex -0.00283287 -0.0024739 0.508467
    endloop
  endfacet
  facet normal 0 -1 0
    outer loop
      vertex -0.023525 -0.0024739 0.519423
      vertex -0.00283287 -0.0024739 0.508467
      vertex -0.0234081 -0.0024739 0.519674
    endloop
  endfacet
  facet normal -0 -1 0
    outer loop
      vertex -0.0248998 -0.0024739 0.521804
      vertex -0.0274704 -0.0024739 0.545084
      vertex -0.0251755 -0.0024739 0.52178
    endloop
  endfacet
  facet normal 0 -1 0
    outer loop
      vertex -0.0251755 -0.0024739 0.52178
      vertex -0.0274704 -0.0024739 0.545084
      vertex -0.0300136 -0.0024739 0.544688
    endloop
  endfacet
  facet normal -0 -1 0
    outer loop
      vertex -0.0251755 -0.0024739 0.52178
      vertex -0.0300136 -0.0024739 0.544688
      vertex -0.0254428 -0.0024739 0.521708
    endloop
  endfacet
  facet normal 0 -1 0
    outer loop
      vertex -0.00225728 -0.0024739 0.530814
      vertex -0.023525 -0.0024739 0.52101
      vertex -0.0234081 -0.0024739 0.52076
    endloop
  endfacet
  facet normal 0 -1 -0
    outer loop
      vertex -0.0261159 -0.0024739 0.519196
      vertex -0.0423484 -0.0024739 0.502313
      vertex -0.0259203 -0.0024739 0.519001
    endloop
  endfacet
  facet normal 0 -1 0
    outer loop
      vertex -0.0259203 -0.0024739 0.519001
      vertex -0.0423484 -0.0024739 0.502313
      vertex -0.0404151 -0.0024739 0.500614
    endloop
  endfacet
  facet normal 0 -1 -0
    outer loop
      vertex -0.0259203 -0.0024739 0.519001
      vertex -0.0404151 -0.0024739 0.500614
      vertex -0.0256936 -0.0024739 0.518842
    endloop
  endfacet
  facet normal -0 -1 0
    outer loop
      vertex -0.0263916 -0.0024739 0.52076
      vertex -0.0492314 -0.0024739 0.525959
      vertex -0.0264632 -0.0024739 0.520492
    endloop
  endfacet
  facet normal 0 -1 0
    outer loop
      vertex -0.0264632 -0.0024739 0.520492
      vertex -0.0492314 -0.0024739 0.525959
      vertex -0.0496929 -0.0024739 0.523427
    endloop
  endfacet
  facet normal -0 -1 0
    outer loop
      vertex -0.0264632 -0.0024739 0.520492
      vertex -0.0496929 -0.0024739 0.523427
      vertex -0.0264873 -0.0024739 0.520217
    endloop
  endfacet
  facet normal -0 -1 0
    outer loop
      vertex -0.0256936 -0.0024739 0.521591
      vertex -0.0393854 -0.0024739 0.540592
      vertex -0.0259203 -0.0024739 0.521433
    endloop
  endfacet
  facet normal 0 -1 0
    outer loop
      vertex -0.0259203 -0.0024739 0.521433
      vertex -0.0393854 -0.0024739 0.540592
      vertex -0.0414036 -0.0024739 0.538995
    endloop
  endfacet
  facet normal -0 -1 0
    outer loop
      vertex -0.0259203 -0.0024739 0.521433
      vertex -0.0414036 -0.0024739 0.538995
      vertex -0.0261159 -0.0024739 0.521237
    endloop
  endfacet
  facet normal 0 -1 0
    outer loop
      vertex -0.0246242 -0.0024739 0.52178
      vertex -0.0223293 -0.0024739 0.545084
      vertex -0.0248998 -0.0024739 0.521804
    endloop
  endfacet
  facet normal 0 -1 0
    outer loop
      vertex -0.0248998 -0.0024739 0.521804
      vertex -0.0223293 -0.0024739 0.545084
      vertex -0.0248998 -0.0024739 0.545217
    endloop
  endfacet
  facet normal 0 -1 0
    outer loop
      vertex -0.0248998 -0.0024739 0.521804
      vertex -0.0248998 -0.0024739 0.545217
      vertex -0.0274704 -0.0024739 0.545084
    endloop
  endfacet
  facet normal 0 -1 0
    outer loop
      vertex -0.0241061 -0.0024739 0.521591
      vertex -0.0148885 -0.0024739 0.543125
      vertex -0.0243569 -0.0024739 0.521708
    endloop
  endfacet
  facet normal 0 -1 0
    outer loop
      vertex -0.0243569 -0.0024739 0.521708
      vertex -0.0148885 -0.0024739 0.543125
      vertex -0.017297 -0.0024739 0.544033
    endloop
  endfacet
  facet normal 0 -1 0
    outer loop
      vertex -0.0243569 -0.0024739 0.521708
      vertex -0.017297 -0.0024739 0.544033
      vertex -0.0246242 -0.0024739 0.52178
    endloop
  endfacet
  facet normal 0 -1 0
    outer loop
      vertex -0.0246242 -0.0024739 0.52178
      vertex -0.017297 -0.0024739 0.544033
      vertex -0.019786 -0.0024739 0.544688
    endloop
  endfacet
  facet normal 0 -1 0
    outer loop
      vertex -0.0246242 -0.0024739 0.52178
      vertex -0.019786 -0.0024739 0.544688
      vertex -0.0223293 -0.0024739 0.545084
    endloop
  endfacet
  facet normal 0 -1 0
    outer loop
      vertex -0.0238794 -0.0024739 0.521433
      vertex -0.0104143 -0.0024739 0.540592
      vertex -0.0241061 -0.0024739 0.521591
    endloop
  endfacet
  facet normal 0 -1 0
    outer loop
      vertex -0.0241061 -0.0024739 0.521591
      vertex -0.0104143 -0.0024739 0.540592
      vertex -0.0125861 -0.0024739 0.541974
    endloop
  endfacet
  facet normal 0 -1 0
    outer loop
      vertex -0.0241061 -0.0024739 0.521591
      vertex -0.0125861 -0.0024739 0.541974
      vertex -0.0148885 -0.0024739 0.543125
    endloop
  endfacet
  facet normal -0 -1 0
    outer loop
      vertex -0.00225728 -0.0024739 0.530814
      vertex -0.00346697 -0.0024739 0.533086
      vertex -0.023525 -0.0024739 0.52101
    endloop
  endfacet
  facet normal 0 -1 0
    outer loop
      vertex -0.023525 -0.0024739 0.52101
      vertex -0.00346697 -0.0024739 0.533086
      vertex -0.00490385 -0.0024739 0.535222
    endloop
  endfacet
  facet normal 0 -1 0
    outer loop
      vertex -0.023525 -0.0024739 0.52101
      vertex -0.00490385 -0.0024739 0.535222
      vertex -0.0236837 -0.0024739 0.521237
    endloop
  endfacet
  facet normal 0 -1 0
    outer loop
      vertex -0.0236837 -0.0024739 0.521237
      vertex -0.00490385 -0.0024739 0.535222
      vertex -0.0065527 -0.0024739 0.537198
    endloop
  endfacet
  facet normal 0 -1 0
    outer loop
      vertex -0.0236837 -0.0024739 0.521237
      vertex -0.0065527 -0.0024739 0.537198
      vertex -0.0238794 -0.0024739 0.521433
    endloop
  endfacet
  facet normal 0 -1 0
    outer loop
      vertex -0.0238794 -0.0024739 0.521433
      vertex -0.0065527 -0.0024739 0.537198
      vertex -0.00839603 -0.0024739 0.538995
    endloop
  endfacet
  facet normal 0 -1 0
    outer loop
      vertex -0.0238794 -0.0024739 0.521433
      vertex -0.00839603 -0.0024739 0.538995
      vertex -0.0104143 -0.0024739 0.540592
    endloop
  endfacet
  facet normal 0 -1 0
    outer loop
      vertex -0.0233365 -0.0024739 0.520492
      vertex -0.000568226 -0.0024739 0.525959
      vertex -0.0234081 -0.0024739 0.52076
    endloop
  endfacet
  facet normal 0 -1 0
    outer loop
      vertex -0.0234081 -0.0024739 0.52076
      vertex -0.000568226 -0.0024739 0.525959
      vertex -0.0012876 -0.0024739 0.52843
    endloop
  endfacet
  facet normal 0 -1 0
    outer loop
      vertex -0.0234081 -0.0024739 0.52076
      vertex -0.0012876 -0.0024739 0.52843
      vertex -0.00225728 -0.0024739 0.530814
    endloop
  endfacet
  facet normal 0 -1 0
    outer loop
      vertex -0.0243569 -0.0024739 0.518725
      vertex -0.0137225 -0.0024739 0.497854
      vertex -0.0241061 -0.0024739 0.518842
    endloop
  endfacet
  facet normal 0 -1 0
    outer loop
      vertex -0.0241061 -0.0024739 0.518842
      vertex -0.0137225 -0.0024739 0.497854
      vertex -0.0114824 -0.0024739 0.499122
    endloop
  endfacet
  facet normal 0 -1 0
    outer loop
      vertex -0.0241061 -0.0024739 0.518842
      vertex -0.0114824 -0.0024739 0.499122
      vertex -0.0238794 -0.0024739 0.519001
    endloop
  endfacet
  facet normal 0 -1 0
    outer loop
      vertex -0.0261868 -0.0024739 0.49525
      vertex -0.0248998 -0.0024739 0.518629
      vertex -0.0251755 -0.0024739 0.518653
    endloop
  endfacet
  facet normal 0 -1 -0
    outer loop
      vertex -0.0254428 -0.0024739 0.518725
      vertex -0.0312666 -0.0024739 0.496041
      vertex -0.0251755 -0.0024739 0.518653
    endloop
  endfacet
  facet normal 0 -1 0
    outer loop
      vertex -0.0251755 -0.0024739 0.518653
      vertex -0.0312666 -0.0024739 0.496041
      vertex -0.0287471 -0.0024739 0.495514
    endloop
  endfacet
  facet normal 0 -1 0
    outer loop
      vertex -0.0251755 -0.0024739 0.518653
      vertex -0.0287471 -0.0024739 0.495514
      vertex -0.0261868 -0.0024739 0.49525
    endloop
  endfacet
  facet normal 0 -1 -0
    outer loop
      vertex -0.0262747 -0.0024739 0.519423
      vertex -0.0456418 -0.0024739 0.506261
      vertex -0.0261159 -0.0024739 0.519196
    endloop
  endfacet
  facet normal 0 -1 0
    outer loop
      vertex -0.0261159 -0.0024739 0.519196
      vertex -0.0456418 -0.0024739 0.506261
      vertex -0.0440968 -0.0024739 0.504202
    endloop
  endfacet
  facet normal 0 -1 0
    outer loop
      vertex -0.0261159 -0.0024739 0.519196
      vertex -0.0440968 -0.0024739 0.504202
      vertex -0.0423484 -0.0024739 0.502313
    endloop
  endfacet
  facet normal 0 -1 -0
    outer loop
      vertex -0.0264632 -0.0024739 0.519941
      vertex -0.0489036 -0.0024739 0.513229
      vertex -0.0263916 -0.0024739 0.519674
    endloop
  endfacet
  facet normal 0 -1 0
    outer loop
      vertex -0.0263916 -0.0024739 0.519674
      vertex -0.0489036 -0.0024739 0.513229
      vertex -0.0480579 -0.0024739 0.510798
    endloop
  endfacet
  facet normal 0 -1 -0
    outer loop
      vertex -0.0263916 -0.0024739 0.519674
      vertex -0.0480579 -0.0024739 0.510798
      vertex -0.0262747 -0.0024739 0.519423
    endloop
  endfacet
  facet normal 0 -1 0
    outer loop
      vertex -0.0262747 -0.0024739 0.519423
      vertex -0.0480579 -0.0024739 0.510798
      vertex -0.0469668 -0.0024739 0.508467
    endloop
  endfacet
  facet normal 0 -1 0
    outer loop
      vertex -0.0262747 -0.0024739 0.519423
      vertex -0.0469668 -0.0024739 0.508467
      vertex -0.0456418 -0.0024739 0.506261
    endloop
  endfacet
  facet normal -0 -1 0
    outer loop
      vertex -0.0262747 -0.0024739 0.52101
      vertex -0.0475424 -0.0024739 0.530814
      vertex -0.0263916 -0.0024739 0.52076
    endloop
  endfacet
  facet normal 0 -1 0
    outer loop
      vertex -0.0263916 -0.0024739 0.52076
      vertex -0.0475424 -0.0024739 0.530814
      vertex -0.0485121 -0.0024739 0.52843
    endloop
  endfacet
  facet normal 0 -1 0
    outer loop
      vertex -0.0263916 -0.0024739 0.52076
      vertex -0.0485121 -0.0024739 0.52843
      vertex -0.0492314 -0.0024739 0.525959
    endloop
  endfacet
  facet normal 0 -1 -0
    outer loop
      vertex -0.0414036 -0.0024739 0.538995
      vertex -0.043247 -0.0024739 0.537198
      vertex -0.0261159 -0.0024739 0.521237
    endloop
  endfacet
  facet normal 0 -1 0
    outer loop
      vertex -0.0261159 -0.0024739 0.521237
      vertex -0.043247 -0.0024739 0.537198
      vertex -0.0448958 -0.0024739 0.535222
    endloop
  endfacet
  facet normal -0 -1 0
    outer loop
      vertex -0.0261159 -0.0024739 0.521237
      vertex -0.0448958 -0.0024739 0.535222
      vertex -0.0262747 -0.0024739 0.52101
    endloop
  endfacet
  facet normal 0 -1 0
    outer loop
      vertex -0.0262747 -0.0024739 0.52101
      vertex -0.0448958 -0.0024739 0.535222
      vertex -0.0463327 -0.0024739 0.533086
    endloop
  endfacet
  facet normal 0 -1 0
    outer loop
      vertex -0.0262747 -0.0024739 0.52101
      vertex -0.0463327 -0.0024739 0.533086
      vertex -0.0475424 -0.0024739 0.530814
    endloop
  endfacet
  facet normal 0 -1 0
    outer loop
      vertex -0.0233365 -0.0024739 0.519941
      vertex 2.56043e-05 -0.0024739 0.518287
      vertex -0.0233123 -0.0024739 0.520217
    endloop
  endfacet
  facet normal 0 -1 0
    outer loop
      vertex -0.0233123 -0.0024739 0.520217
      vertex 2.56043e-05 -0.0024739 0.518287
      vertex 9.18772e-05 -0.0024739 0.52086
    endloop
  endfacet
  facet normal 0 -1 0
    outer loop
      vertex -0.0233123 -0.0024739 0.520217
      vertex 9.18772e-05 -0.0024739 0.52086
      vertex -0.0233365 -0.0024739 0.520492
    endloop
  endfacet
  facet normal 0 -1 0
    outer loop
      vertex -0.0233365 -0.0024739 0.520492
      vertex 9.18772e-05 -0.0024739 0.52086
      vertex -0.000106768 -0.0024739 0.523427
    endloop
  endfacet
  facet normal 0 -1 0
    outer loop
      vertex -0.0233365 -0.0024739 0.520492
      vertex -0.000106768 -0.0024739 0.523427
      vertex -0.000568226 -0.0024739 0.525959
    endloop
  endfacet
  facet normal 0 -1 0
    outer loop
      vertex -0.0114824 -0.0024739 0.499122
      vertex -0.0093846 -0.0024739 0.500614
      vertex -0.0238794 -0.0024739 0.519001
    endloop
  endfacet
  facet normal 0 -1 0
    outer loop
      vertex -0.0238794 -0.0024739 0.519001
      vertex -0.0093846 -0.0024739 0.500614
      vertex -0.00745123 -0.0024739 0.502313
    endloop
  endfacet
  facet normal 0 -1 0
    outer loop
      vertex -0.0238794 -0.0024739 0.519001
      vertex -0.00745123 -0.0024739 0.502313
      vertex -0.0236837 -0.0024739 0.519196
    endloop
  endfacet
  facet normal 0 -1 0
    outer loop
      vertex -0.0236837 -0.0024739 0.519196
      vertex -0.00745123 -0.0024739 0.502313
      vertex -0.00570282 -0.0024739 0.504202
    endloop
  endfacet
  facet normal 0 -1 0
    outer loop
      vertex -0.0236837 -0.0024739 0.519196
      vertex -0.00570282 -0.0024739 0.504202
      vertex -0.00415791 -0.0024739 0.506261
    endloop
  endfacet
  facet normal 0 -1 0
    outer loop
      vertex -0.0246242 -0.0024739 0.518653
      vertex -0.0185331 -0.0024739 0.496041
      vertex -0.0243569 -0.0024739 0.518725
    endloop
  endfacet
  facet normal 0 -1 0
    outer loop
      vertex -0.0243569 -0.0024739 0.518725
      vertex -0.0185331 -0.0024739 0.496041
      vertex -0.016081 -0.0024739 0.496824
    endloop
  endfacet
  facet normal 0 -1 0
    outer loop
      vertex -0.0243569 -0.0024739 0.518725
      vertex -0.016081 -0.0024739 0.496824
      vertex -0.0137225 -0.0024739 0.497854
    endloop
  endfacet
  facet normal 0 -1 0
    outer loop
      vertex -0.0261868 -0.0024739 0.49525
      vertex -0.0248998 -0.0024739 0.495217
      vertex -0.0248998 -0.0024739 0.518629
    endloop
  endfacet
  facet normal 0 -1 0
    outer loop
      vertex -0.0248998 -0.0024739 0.518629
      vertex -0.0248998 -0.0024739 0.495217
      vertex -0.0236129 -0.0024739 0.49525
    endloop
  endfacet
  facet normal 0 -1 0
    outer loop
      vertex -0.0248998 -0.0024739 0.518629
      vertex -0.0236129 -0.0024739 0.49525
      vertex -0.0246242 -0.0024739 0.518653
    endloop
  endfacet
  facet normal 0 -1 0
    outer loop
      vertex -0.0246242 -0.0024739 0.518653
      vertex -0.0236129 -0.0024739 0.49525
      vertex -0.0210526 -0.0024739 0.495514
    endloop
  endfacet
  facet normal 0 -1 0
    outer loop
      vertex -0.0246242 -0.0024739 0.518653
      vertex -0.0210526 -0.0024739 0.495514
      vertex -0.0185331 -0.0024739 0.496041
    endloop
  endfacet
  facet normal 0 -1 0
    outer loop
      vertex -0.0404151 -0.0024739 0.500614
      vertex -0.0383172 -0.0024739 0.499122
      vertex -0.0256936 -0.0024739 0.518842
    endloop
  endfacet
  facet normal 0 -1 0
    outer loop
      vertex -0.0256936 -0.0024739 0.518842
      vertex -0.0383172 -0.0024739 0.499122
      vertex -0.0360772 -0.0024739 0.497854
    endloop
  endfacet
  facet normal 0 -1 -0
    outer loop
      vertex -0.0256936 -0.0024739 0.518842
      vertex -0.0360772 -0.0024739 0.497854
      vertex -0.0254428 -0.0024739 0.518725
    endloop
  endfacet
  facet normal 0 -1 0
    outer loop
      vertex -0.0254428 -0.0024739 0.518725
      vertex -0.0360772 -0.0024739 0.497854
      vertex -0.0337186 -0.0024739 0.496824
    endloop
  endfacet
  facet normal 0 -1 0
    outer loop
      vertex -0.0254428 -0.0024739 0.518725
      vertex -0.0337186 -0.0024739 0.496824
      vertex -0.0312666 -0.0024739 0.496041
    endloop
  endfacet
  facet normal 0 -1 -0
    outer loop
      vertex -0.0300136 -0.0024739 0.544688
      vertex -0.0325027 -0.0024739 0.544033
      vertex -0.0254428 -0.0024739 0.521708
    endloop
  endfacet
  facet normal 0 -1 0
    outer loop
      vertex -0.0254428 -0.0024739 0.521708
      vertex -0.0325027 -0.0024739 0.544033
      vertex -0.0349112 -0.0024739 0.543125
    endloop
  endfacet
  facet normal -0 -1 0
    outer loop
      vertex -0.0254428 -0.0024739 0.521708
      vertex -0.0349112 -0.0024739 0.543125
      vertex -0.0256936 -0.0024739 0.521591
    endloop
  endfacet
  facet normal 0 -1 0
    outer loop
      vertex -0.0256936 -0.0024739 0.521591
      vertex -0.0349112 -0.0024739 0.543125
      vertex -0.0372135 -0.0024739 0.541974
    endloop
  endfacet
  facet normal 0 -1 0
    outer loop
      vertex -0.0256936 -0.0024739 0.521591
      vertex -0.0372135 -0.0024739 0.541974
      vertex -0.0393854 -0.0024739 0.540592
    endloop
  endfacet
  facet normal 0 -1 -0
    outer loop
      vertex -0.0496929 -0.0024739 0.523427
      vertex -0.0498915 -0.0024739 0.52086
      vertex -0.0264873 -0.0024739 0.520217
    endloop
  endfacet
  facet normal -0 -1 0
    outer loop
      vertex -0.0264873 -0.0024739 0.520217
      vertex -0.0498915 -0.0024739 0.52086
      vertex -0.0498253 -0.0024739 0.518287
    endloop
  endfacet
  facet normal 0 -1 -0
    outer loop
      vertex -0.0264873 -0.0024739 0.520217
      vertex -0.0498253 -0.0024739 0.518287
      vertex -0.0264632 -0.0024739 0.519941
    endloop
  endfacet
  facet normal 0 -1 0
    outer loop
      vertex -0.0264632 -0.0024739 0.519941
      vertex -0.0498253 -0.0024739 0.518287
      vertex -0.0494948 -0.0024739 0.515735
    endloop
  endfacet
  facet normal 0 -1 0
    outer loop
      vertex -0.0264632 -0.0024739 0.519941
      vertex -0.0494948 -0.0024739 0.515735
      vertex -0.0489036 -0.0024739 0.513229
    endloop
  endfacet
  facet normal 0 -1 0
    outer loop
      vertex -0.00283287 -0.0024739 0.508467
      vertex -0.00174173 -0.0024739 0.510798
      vertex -0.0234081 -0.0024739 0.519674
    endloop
  endfacet
  facet normal 0 -1 0
    outer loop
      vertex -0.0234081 -0.0024739 0.519674
      vertex -0.00174173 -0.0024739 0.510798
      vertex -0.000896088 -0.0024739 0.513229
    endloop
  endfacet
  facet normal 0 -1 0
    outer loop
      vertex -0.0234081 -0.0024739 0.519674
      vertex -0.000896088 -0.0024739 0.513229
      vertex -0.0233365 -0.0024739 0.519941
    endloop
  endfacet
  facet normal 0 -1 0
    outer loop
      vertex -0.0233365 -0.0024739 0.519941
      vertex -0.000896088 -0.0024739 0.513229
      vertex -0.000304885 -0.0024739 0.515735
    endloop
  endfacet
  facet normal 0 -1 0
    outer loop
      vertex -0.0233365 -0.0024739 0.519941
      vertex -0.000304885 -0.0024739 0.515735
      vertex 2.56043e-05 -0.0024739 0.518287
    endloop
  endfacet
  facet normal 0.0867232 -0 0.996232
    outer loop
      vertex -0.0248998 -0.0024739 0.518629
      vertex -0.0248998 0.0025261 0.518629
      vertex -0.0251755 -0.0024739 0.518653
    endloop
  endfacet
  facet normal 0.0867232 -0 0.996232
    outer loop
      vertex -0.0251755 -0.0024739 0.518653
      vertex -0.0248998 0.0025261 0.518629
      vertex -0.0251755 0.0025261 0.518653
    endloop
  endfacet
  facet normal 0.26009 -0 0.965584
    outer loop
      vertex -0.0251755 -0.0024739 0.518653
      vertex -0.0251755 0.0025261 0.518653
      vertex -0.0254428 -0.0024739 0.518725
    endloop
  endfacet
  facet normal 0.26009 -0 0.965584
    outer loop
      vertex -0.0254428 -0.0024739 0.518725
      vertex -0.0251755 0.0025261 0.518653
      vertex -0.0254428 0.0025261 0.518725
    endloop
  endfacet
  facet normal 0.422767 -0 0.906239
    outer loop
      vertex -0.0254428 -0.0024739 0.518725
      vertex -0.0254428 0.0025261 0.518725
      vertex -0.0256936 -0.0024739 0.518842
    endloop
  endfacet
  facet normal 0.422767 -0 0.906239
    outer loop
      vertex -0.0256936 -0.0024739 0.518842
      vertex -0.0254428 0.0025261 0.518725
      vertex -0.0256936 0.0025261 0.518842
    endloop
  endfacet
  facet normal 0.574213 -0 0.818706
    outer loop
      vertex -0.0256936 -0.0024739 0.518842
      vertex -0.0256936 0.0025261 0.518842
      vertex -0.0259203 -0.0024739 0.519001
    endloop
  endfacet
  facet normal 0.574213 -0 0.818706
    outer loop
      vertex -0.0259203 -0.0024739 0.519001
      vertex -0.0256936 0.0025261 0.518842
      vertex -0.0259203 0.0025261 0.519001
    endloop
  endfacet
  facet normal 0.70602 -0 0.708192
    outer loop
      vertex -0.0259203 -0.0024739 0.519001
      vertex -0.0259203 0.0025261 0.519001
      vertex -0.0261159 -0.0024739 0.519196
    endloop
  endfacet
  facet normal 0.70602 -0 0.708192
    outer loop
      vertex -0.0261159 -0.0024739 0.519196
      vertex -0.0259203 0.0025261 0.519001
      vertex -0.0261159 0.0025261 0.519196
    endloop
  endfacet
  facet normal 0.819401 -0 0.57322
    outer loop
      vertex -0.0261159 -0.0024739 0.519196
      vertex -0.0261159 0.0025261 0.519196
      vertex -0.0262747 -0.0024739 0.519423
    endloop
  endfacet
  facet normal 0.819401 -0 0.57322
    outer loop
      vertex -0.0262747 -0.0024739 0.519423
      vertex -0.0261159 0.0025261 0.519196
      vertex -0.0262747 0.0025261 0.519423
    endloop
  endfacet
  facet normal 0.906506 -0 0.422193
    outer loop
      vertex -0.0262747 -0.0024739 0.519423
      vertex -0.0262747 0.0025261 0.519423
      vertex -0.0263916 -0.0024739 0.519674
    endloop
  endfacet
  facet normal 0.906506 -0 0.422193
    outer loop
      vertex -0.0263916 -0.0024739 0.519674
      vertex -0.0262747 0.0025261 0.519423
      vertex -0.0263916 0.0025261 0.519674
    endloop
  endfacet
  facet normal 0.965874 -0 0.259013
    outer loop
      vertex -0.0263916 -0.0024739 0.519674
      vertex -0.0263916 0.0025261 0.519674
      vertex -0.0264632 -0.0024739 0.519941
    endloop
  endfacet
  facet normal 0.965874 -0 0.259013
    outer loop
      vertex -0.0264632 -0.0024739 0.519941
      vertex -0.0263916 0.0025261 0.519674
      vertex -0.0264632 0.0025261 0.519941
    endloop
  endfacet
  facet normal 0.996209 -0 0.0869878
    outer loop
      vertex -0.0264632 -0.0024739 0.519941
      vertex -0.0264632 0.0025261 0.519941
      vertex -0.0264873 -0.0024739 0.520217
    endloop
  endfacet
  facet normal 0.996209 -0 0.0869878
    outer loop
      vertex -0.0264873 -0.0024739 0.520217
      vertex -0.0264632 0.0025261 0.519941
      vertex -0.0264873 0.0025261 0.520217
    endloop
  endfacet
  facet normal 0.996182 0 -0.0873018
    outer loop
      vertex -0.0264873 -0.0024739 0.520217
      vertex -0.0264873 0.0025261 0.520217
      vertex -0.0264632 -0.0024739 0.520492
    endloop
  endfacet
  facet normal 0.996182 0 -0.0873018
    outer loop
      vertex -0.0264632 -0.0024739 0.520492
      vertex -0.0264873 0.0025261 0.520217
      vertex -0.0264632 0.0025261 0.520492
    endloop
  endfacet
  facet normal 0.966115 0 -0.258111
    outer loop
      vertex -0.0264632 -0.0024739 0.520492
      vertex -0.0264632 0.0025261 0.520492
      vertex -0.0263916 -0.0024739 0.52076
    endloop
  endfacet
  facet normal 0.966115 0 -0.258111
    outer loop
      vertex -0.0263916 -0.0024739 0.52076
      vertex -0.0264632 0.0025261 0.520492
      vertex -0.0263916 0.0025261 0.52076
    endloop
  endfacet
  facet normal 0.905859 0 -0.42358
    outer loop
      vertex -0.0263916 -0.0024739 0.52076
      vertex -0.0263916 0.0025261 0.52076
      vertex -0.0262747 -0.0024739 0.52101
    endloop
  endfacet
  facet normal 0.905859 0 -0.42358
    outer loop
      vertex -0.0262747 -0.0024739 0.52101
      vertex -0.0263916 0.0025261 0.52076
      vertex -0.0262747 0.0025261 0.52101
    endloop
  endfacet
  facet normal 0.819401 0 -0.57322
    outer loop
      vertex -0.0262747 -0.0024739 0.52101
      vertex -0.0262747 0.0025261 0.52101
      vertex -0.0261159 -0.0024739 0.521237
    endloop
  endfacet
  facet normal 0.819401 0 -0.57322
    outer loop
      vertex -0.0261159 -0.0024739 0.521237
      vertex -0.0262747 0.0025261 0.52101
      vertex -0.0261159 0.0025261 0.521237
    endloop
  endfacet
  facet normal 0.707829 0 -0.706384
    outer loop
      vertex -0.0261159 -0.0024739 0.521237
      vertex -0.0261159 0.0025261 0.521237
      vertex -0.0259203 -0.0024739 0.521433
    endloop
  endfacet
  facet normal 0.707829 0 -0.706384
    outer loop
      vertex -0.0259203 -0.0024739 0.521433
      vertex -0.0261159 0.0025261 0.521237
      vertex -0.0259203 0.0025261 0.521433
    endloop
  endfacet
  facet normal 0.571785 0 -0.820403
    outer loop
      vertex -0.0259203 -0.0024739 0.521433
      vertex -0.0259203 0.0025261 0.521433
      vertex -0.0256936 -0.0024739 0.521591
    endloop
  endfacet
  facet normal 0.571785 0 -0.820403
    outer loop
      vertex -0.0256936 -0.0024739 0.521591
      vertex -0.0259203 0.0025261 0.521433
      vertex -0.0256936 0.0025261 0.521591
    endloop
  endfacet
  facet normal 0.422767 0 -0.906239
    outer loop
      vertex -0.0256936 -0.0024739 0.521591
      vertex -0.0256936 0.0025261 0.521591
      vertex -0.0254428 -0.0024739 0.521708
    endloop
  endfacet
  facet normal 0.422767 0 -0.906239
    outer loop
      vertex -0.0254428 -0.0024739 0.521708
      vertex -0.0256936 0.0025261 0.521591
      vertex -0.0254428 0.0025261 0.521708
    endloop
  endfacet
  facet normal 0.26009 0 -0.965584
    outer loop
      vertex -0.0254428 -0.0024739 0.521708
      vertex -0.0254428 0.0025261 0.521708
      vertex -0.0251755 -0.0024739 0.52178
    endloop
  endfacet
  facet normal 0.26009 0 -0.965584
    outer loop
      vertex -0.0251755 -0.0024739 0.52178
      vertex -0.0254428 0.0025261 0.521708
      vertex -0.0251755 0.0025261 0.52178
    endloop
  endfacet
  facet normal 0.0867232 0 -0.996232
    outer loop
      vertex -0.0251755 -0.0024739 0.52178
      vertex -0.0251755 0.0025261 0.52178
      vertex -0.0248998 -0.0024739 0.521804
    endloop
  endfacet
  facet normal 0.0867232 0 -0.996232
    outer loop
      vertex -0.0248998 -0.0024739 0.521804
      vertex -0.0251755 0.0025261 0.52178
      vertex -0.0248998 0.0025261 0.521804
    endloop
  endfacet
  facet normal -0.0867544 0 -0.99623
    outer loop
      vertex -0.0248998 -0.0024739 0.521804
      vertex -0.0248998 0.0025261 0.521804
      vertex -0.0246242 -0.0024739 0.52178
    endloop
  endfacet
  facet normal -0.0867544 0 -0.99623
    outer loop
      vertex -0.0246242 -0.0024739 0.52178
      vertex -0.0248998 0.0025261 0.521804
      vertex -0.0246242 0.0025261 0.52178
    endloop
  endfacet
  facet normal -0.26009 0 -0.965584
    outer loop
      vertex -0.0246242 -0.0024739 0.52178
      vertex -0.0246242 0.0025261 0.52178
      vertex -0.0243569 -0.0024739 0.521708
    endloop
  endfacet
  facet normal -0.26009 0 -0.965584
    outer loop
      vertex -0.0243569 -0.0024739 0.521708
      vertex -0.0246242 0.0025261 0.52178
      vertex -0.0243569 0.0025261 0.521708
    endloop
  endfacet
  facet normal -0.422767 0 -0.906239
    outer loop
      vertex -0.0243569 -0.0024739 0.521708
      vertex -0.0243569 0.0025261 0.521708
      vertex -0.0241061 -0.0024739 0.521591
    endloop
  endfacet
  facet normal -0.422767 0 -0.906239
    outer loop
      vertex -0.0241061 -0.0024739 0.521591
      vertex -0.0243569 0.0025261 0.521708
      vertex -0.0241061 0.0025261 0.521591
    endloop
  endfacet
  facet normal -0.571785 0 -0.820403
    outer loop
      vertex -0.0241061 -0.0024739 0.521591
      vertex -0.0241061 0.0025261 0.521591
      vertex -0.0238794 -0.0024739 0.521433
    endloop
  endfacet
  facet normal -0.571785 0 -0.820403
    outer loop
      vertex -0.0238794 -0.0024739 0.521433
      vertex -0.0241061 0.0025261 0.521591
      vertex -0.0238794 0.0025261 0.521433
    endloop
  endfacet
  facet normal -0.707648 0 -0.706565
    outer loop
      vertex -0.0238794 -0.0024739 0.521433
      vertex -0.0238794 0.0025261 0.521433
      vertex -0.0236837 -0.0024739 0.521237
    endloop
  endfacet
  facet normal -0.707648 0 -0.706565
    outer loop
      vertex -0.0236837 -0.0024739 0.521237
      vertex -0.0238794 0.0025261 0.521433
      vertex -0.0236837 0.0025261 0.521237
    endloop
  endfacet
  facet normal -0.819571 0 -0.572978
    outer loop
      vertex -0.0236837 -0.0024739 0.521237
      vertex -0.0236837 0.0025261 0.521237
      vertex -0.023525 -0.0024739 0.52101
    endloop
  endfacet
  facet normal -0.819571 0 -0.572978
    outer loop
      vertex -0.023525 -0.0024739 0.52101
      vertex -0.0236837 0.0025261 0.521237
      vertex -0.023525 0.0025261 0.52101
    endloop
  endfacet
  facet normal -0.905859 0 -0.42358
    outer loop
      vertex -0.023525 -0.0024739 0.52101
      vertex -0.023525 0.0025261 0.52101
      vertex -0.0234081 -0.0024739 0.52076
    endloop
  endfacet
  facet normal -0.905859 0 -0.42358
    outer loop
      vertex -0.0234081 -0.0024739 0.52076
      vertex -0.023525 0.0025261 0.52101
      vertex -0.0234081 0.0025261 0.52076
    endloop
  endfacet
  facet normal -0.966115 0 -0.258111
    outer loop
      vertex -0.0234081 -0.0024739 0.52076
      vertex -0.0234081 0.0025261 0.52076
      vertex -0.0233365 -0.0024739 0.520492
    endloop
  endfacet
  facet normal -0.966115 0 -0.258111
    outer loop
      vertex -0.0233365 -0.0024739 0.520492
      vertex -0.0234081 0.0025261 0.52076
      vertex -0.0233365 0.0025261 0.520492
    endloop
  endfacet
  facet normal -0.99615 0 -0.0876612
    outer loop
      vertex -0.0233365 -0.0024739 0.520492
      vertex -0.0233365 0.0025261 0.520492
      vertex -0.0233123 -0.0024739 0.520217
    endloop
  endfacet
  facet normal -0.99615 0 -0.0876612
    outer loop
      vertex -0.0233123 -0.0024739 0.520217
      vertex -0.0233365 0.0025261 0.520492
      vertex -0.0233123 0.0025261 0.520217
    endloop
  endfacet
  facet normal -0.996178 0 0.087346
    outer loop
      vertex -0.0233123 -0.0024739 0.520217
      vertex -0.0233123 0.0025261 0.520217
      vertex -0.0233365 -0.0024739 0.519941
    endloop
  endfacet
  facet normal -0.996178 0 0.087346
    outer loop
      vertex -0.0233365 -0.0024739 0.519941
      vertex -0.0233123 0.0025261 0.520217
      vertex -0.0233365 0.0025261 0.519941
    endloop
  endfacet
  facet normal -0.965874 0 0.259013
    outer loop
      vertex -0.0233365 -0.0024739 0.519941
      vertex -0.0233365 0.0025261 0.519941
      vertex -0.0234081 -0.0024739 0.519674
    endloop
  endfacet
  facet normal -0.965874 0 0.259013
    outer loop
      vertex -0.0234081 -0.0024739 0.519674
      vertex -0.0233365 0.0025261 0.519941
      vertex -0.0234081 0.0025261 0.519674
    endloop
  endfacet
  facet normal -0.906506 0 0.422193
    outer loop
      vertex -0.0234081 -0.0024739 0.519674
      vertex -0.0234081 0.0025261 0.519674
      vertex -0.023525 -0.0024739 0.519423
    endloop
  endfacet
  facet normal -0.906506 0 0.422193
    outer loop
      vertex -0.023525 -0.0024739 0.519423
      vertex -0.0234081 0.0025261 0.519674
      vertex -0.023525 0.0025261 0.519423
    endloop
  endfacet
  facet normal -0.819571 0 0.572978
    outer loop
      vertex -0.023525 -0.0024739 0.519423
      vertex -0.023525 0.0025261 0.519423
      vertex -0.0236837 -0.0024739 0.519196
    endloop
  endfacet
  facet normal -0.819571 0 0.572978
    outer loop
      vertex -0.0236837 -0.0024739 0.519196
      vertex -0.023525 0.0025261 0.519423
      vertex -0.0236837 0.0025261 0.519196
    endloop
  endfacet
  facet normal -0.705839 0 0.708373
    outer loop
      vertex -0.0236837 -0.0024739 0.519196
      vertex -0.0236837 0.0025261 0.519196
      vertex -0.0238794 -0.0024739 0.519001
    endloop
  endfacet
  facet normal -0.705839 0 0.708373
    outer loop
      vertex -0.0238794 -0.0024739 0.519001
      vertex -0.0236837 0.0025261 0.519196
      vertex -0.0238794 0.0025261 0.519001
    endloop
  endfacet
  facet normal -0.574213 0 0.818706
    outer loop
      vertex -0.0238794 -0.0024739 0.519001
      vertex -0.0238794 0.0025261 0.519001
      vertex -0.0241061 -0.0024739 0.518842
    endloop
  endfacet
  facet normal -0.574213 0 0.818706
    outer loop
      vertex -0.0241061 -0.0024739 0.518842
      vertex -0.0238794 0.0025261 0.519001
      vertex -0.0241061 0.0025261 0.518842
    endloop
  endfacet
  facet normal -0.422767 0 0.906239
    outer loop
      vertex -0.0241061 -0.0024739 0.518842
      vertex -0.0241061 0.0025261 0.518842
      vertex -0.0243569 -0.0024739 0.518725
    endloop
  endfacet
  facet normal -0.422767 0 0.906239
    outer loop
      vertex -0.0243569 -0.0024739 0.518725
      vertex -0.0241061 0.0025261 0.518842
      vertex -0.0243569 0.0025261 0.518725
    endloop
  endfacet
  facet normal -0.26009 0 0.965584
    outer loop
      vertex -0.0243569 -0.0024739 0.518725
      vertex -0.0243569 0.0025261 0.518725
      vertex -0.0246242 -0.0024739 0.518653
    endloop
  endfacet
  facet normal -0.26009 0 0.965584
    outer loop
      vertex -0.0246242 -0.0024739 0.518653
      vertex -0.0243569 0.0025261 0.518725
      vertex -0.0246242 0.0025261 0.518653
    endloop
  endfacet
  facet normal -0.0867544 0 0.99623
    outer loop
      vertex -0.0246242 -0.0024739 0.518653
      vertex -0.0246242 0.0025261 0.518653
      vertex -0.0248998 -0.0024739 0.518629
    endloop
  endfacet
  facet normal -0.0867544 0 0.99623
    outer loop
      vertex -0.0248998 -0.0024739 0.518629
      vertex -0.0246242 0.0025261 0.518653
      vertex -0.0248998 0.0025261 0.518629
    endloop
  endfacet
endsolid OpenSCAD_Model
